<?xml version="1.0" encoding="UTF-8" standalone="no"?>
<svg
   xmlns:dc="http://purl.org/dc/elements/1.1/"
   xmlns:cc="http://creativecommons.org/ns#"
   xmlns:rdf="http://www.w3.org/1999/02/22-rdf-syntax-ns#"
   xmlns:svg="http://www.w3.org/2000/svg"
   xmlns="http://www.w3.org/2000/svg"
   xmlns:sodipodi="http://sodipodi.sourceforge.net/DTD/sodipodi-0.dtd"
   xmlns:inkscape="http://www.inkscape.org/namespaces/inkscape"
   version="1.1"
   id="Layer_1"
   x="0px"
   y="0px"
   width="120px"
   height="120px"
   viewBox="0 0 120 120"
   enable-background="new 0 0 120 120"
   xml:space="preserve"
   sodipodi:docname="camera.svg"
   inkscape:version="1.0.2 (e86c8708, 2021-01-15)"><metadata
   id="metadata844"><rdf:RDF><cc:Work
       rdf:about=""><dc:format>image/svg+xml</dc:format><dc:type
         rdf:resource="http://purl.org/dc/dcmitype/StillImage" /></cc:Work></rdf:RDF></metadata><defs
   id="defs842" /><sodipodi:namedview
   pagecolor="#ffffff"
   bordercolor="#666666"
   borderopacity="1"
   objecttolerance="10"
   gridtolerance="10"
   guidetolerance="10"
   inkscape:pageopacity="0"
   inkscape:pageshadow="2"
   inkscape:window-width="776"
   inkscape:window-height="480"
   id="namedview840"
   showgrid="false"
   inkscape:zoom="0.86483064"
   inkscape:cx="98.133078"
   inkscape:cy="96.20002"
   inkscape:window-x="0"
   inkscape:window-y="25"
   inkscape:window-maximized="0"
   inkscape:current-layer="Layer_1" />
<g
   id="g837"
   style="fill:#1755b3;fill-opacity:1">
	<path
   d="M70.953,47.345c-11.828,0-21.451,9.623-21.451,21.451s9.623,21.451,21.451,21.451s21.451-9.623,21.451-21.451   S82.781,47.345,70.953,47.345z"
   id="path833"
   style="fill:#1755b3;fill-opacity:1" />
	<path
   d="M99.447,28.789l-4.674-14.337H47.133l-4.674,14.337H0v80.014h120V28.789H99.447z M28.08,50.57H11.572v-8.819H28.08V50.57z    M70.953,100.247c-17.342,0-31.451-14.109-31.451-31.451s14.109-31.451,31.451-31.451c17.342,0,31.451,14.109,31.451,31.451   S88.295,100.247,70.953,100.247z"
   id="path835"
   style="fill:#1755b3;fill-opacity:1" />
</g>
</svg>
