<?xml version="1.0" encoding="UTF-8" standalone="no"?>
<svg
   xmlns:dc="http://purl.org/dc/elements/1.1/"
   xmlns:cc="http://creativecommons.org/ns#"
   xmlns:rdf="http://www.w3.org/1999/02/22-rdf-syntax-ns#"
   xmlns:svg="http://www.w3.org/2000/svg"
   xmlns="http://www.w3.org/2000/svg"
   xmlns:sodipodi="http://sodipodi.sourceforge.net/DTD/sodipodi-0.dtd"
   xmlns:inkscape="http://www.inkscape.org/namespaces/inkscape"
   width="48px"
   height="48px"
   viewBox="0 0 48 48"
   version="1.1"
   id="svg840"
   sodipodi:docname="checkmark-circle-svgrepo-com.svg"
   inkscape:version="1.0.2 (e86c8708, 2021-01-15)">
  <metadata
     id="metadata846">
    <rdf:RDF>
      <cc:Work
         rdf:about="">
        <dc:format>image/svg+xml</dc:format>
        <dc:type
           rdf:resource="http://purl.org/dc/dcmitype/StillImage" />
      </cc:Work>
    </rdf:RDF>
  </metadata>
  <defs
     id="defs844" />
  <sodipodi:namedview
     pagecolor="#ffffff"
     bordercolor="#666666"
     borderopacity="1"
     objecttolerance="10"
     gridtolerance="10"
     guidetolerance="10"
     inkscape:pageopacity="0"
     inkscape:pageshadow="2"
     inkscape:window-width="776"
     inkscape:window-height="480"
     id="namedview842"
     showgrid="false"
     inkscape:zoom="5.1567329"
     inkscape:cx="24"
     inkscape:cy="24"
     inkscape:window-x="0"
     inkscape:window-y="25"
     inkscape:window-maximized="0"
     inkscape:current-layer="svg840" />
  <!-- Uploaded to SVGRepo https://www.svgrepo.com -->
  <title
     id="title833">ic_fluent_checkmark_circle_48_filled</title>
  <desc
     id="desc835">Created with Sketch.</desc>
  <g
     id="ðŸ”-Product-Icons"
     stroke="none"
     stroke-width="1"
     fill="none"
     fill-rule="evenodd"
     style="fill:#00ff00">
    <g
       id="ic_fluent_checkmark_circle_48_filled"
       fill="#212121"
       fill-rule="nonzero"
       style="fill:#00ff00">
      <path
         d="M24,4 C35.045695,4 44,12.954305 44,24 C44,35.045695 35.045695,44 24,44 C12.954305,44 4,35.045695 4,24 C4,12.954305 12.954305,4 24,4 Z M32.6338835,17.6161165 C32.1782718,17.1605048 31.4584514,17.1301307 30.9676119,17.5249942 L30.8661165,17.6161165 L20.75,27.732233 L17.1338835,24.1161165 C16.6457281,23.6279612 15.8542719,23.6279612 15.3661165,24.1161165 C14.9105048,24.5717282 14.8801307,25.2915486 15.2749942,25.7823881 L15.3661165,25.8838835 L19.8661165,30.3838835 C20.3217282,30.8394952 21.0415486,30.8698693 21.5323881,30.4750058 L21.6338835,30.3838835 L32.6338835,19.3838835 C33.1220388,18.8957281 33.1220388,18.1042719 32.6338835,17.6161165 Z"
         id="ðŸŽ¨-Color"
         style="fill:#00ff00" />
    </g>
  </g>
</svg>
