<?xml version="1.0" encoding="UTF-8" standalone="no"?>
<svg
   xmlns:dc="http://purl.org/dc/elements/1.1/"
   xmlns:cc="http://creativecommons.org/ns#"
   xmlns:rdf="http://www.w3.org/1999/02/22-rdf-syntax-ns#"
   xmlns:svg="http://www.w3.org/2000/svg"
   xmlns="http://www.w3.org/2000/svg"
   xmlns:sodipodi="http://sodipodi.sourceforge.net/DTD/sodipodi-0.dtd"
   xmlns:inkscape="http://www.inkscape.org/namespaces/inkscape"
   width="28px"
   height="28px"
   viewBox="0 0 28 28"
   version="1.1"
   id="svg840"
   sodipodi:docname="info.svg"
   inkscape:version="1.0.2 (e86c8708, 2021-01-15)">
  <metadata
     id="metadata846">
    <rdf:RDF>
      <cc:Work
         rdf:about="">
        <dc:format>image/svg+xml</dc:format>
        <dc:type
           rdf:resource="http://purl.org/dc/dcmitype/StillImage" />
      </cc:Work>
    </rdf:RDF>
  </metadata>
  <defs
     id="defs844" />
  <sodipodi:namedview
     pagecolor="#ffffff"
     bordercolor="#666666"
     borderopacity="1"
     objecttolerance="10"
     gridtolerance="10"
     guidetolerance="10"
     inkscape:pageopacity="0"
     inkscape:pageshadow="2"
     inkscape:window-width="776"
     inkscape:window-height="480"
     id="namedview842"
     showgrid="false"
     inkscape:zoom="8.8401135"
     inkscape:cx="14"
     inkscape:cy="14"
     inkscape:window-x="0"
     inkscape:window-y="25"
     inkscape:window-maximized="0"
     inkscape:current-layer="svg840" />
  <!-- Uploaded to SVGRepo https://www.svgrepo.com -->
  <title
     id="title833">ic_fluent_info_28_filled</title>
  <desc
     id="desc835">Created with Sketch.</desc>
  <g
     id="ðŸ”-System-Icons"
     stroke="none"
     stroke-width="1"
     fill="none"
     fill-rule="evenodd"
     style="fill:#0000ff">
    <g
       id="ic_fluent_info_28_filled"
       fill="#212121"
       fill-rule="nonzero"
       style="fill:#0000ff">
      <path
         d="M14,2 C20.6274,2 26,7.37258 26,14 C26,20.6274 20.6274,26 14,26 C7.37258,26 2,20.6274 2,14 C2,7.37258 7.37258,2 14,2 Z M14,11 C13.4477,11 13,11.4477 13,12 L13,12 L13,20 C13,20.5523 13.4477,21 14,21 C14.5523,21 15,20.5523 15,20 L15,20 L15,12 C15,11.4477 14.5523,11 14,11 Z M14,6.75 C13.3096,6.75 12.75,7.30964 12.75,8 C12.75,8.69036 13.3096,9.25 14,9.25 C14.6904,9.25 15.25,8.69036 15.25,8 C15.25,7.30964 14.6904,6.75 14,6.75 Z"
         id="ðŸŽ¨-Color"
         style="fill:#0000ff" />
    </g>
  </g>
</svg>
