<?xml version="1.0" encoding="UTF-8" standalone="no"?>
<svg
   xmlns:dc="http://purl.org/dc/elements/1.1/"
   xmlns:cc="http://creativecommons.org/ns#"
   xmlns:rdf="http://www.w3.org/1999/02/22-rdf-syntax-ns#"
   xmlns:svg="http://www.w3.org/2000/svg"
   xmlns="http://www.w3.org/2000/svg"
   xmlns:sodipodi="http://sodipodi.sourceforge.net/DTD/sodipodi-0.dtd"
   xmlns:inkscape="http://www.inkscape.org/namespaces/inkscape"
   version="1.1"
   id="Capa_1"
   x="0px"
   y="0px"
   viewBox="0 0 490 490"
   style="enable-background:new 0 0 490 490;"
   xml:space="preserve"
   sodipodi:docname="pencil.svg"
   inkscape:version="1.0.2 (e86c8708, 2021-01-15)"><metadata
   id="metadata870"><rdf:RDF><cc:Work
       rdf:about=""><dc:format>image/svg+xml</dc:format><dc:type
         rdf:resource="http://purl.org/dc/dcmitype/StillImage" /></cc:Work></rdf:RDF></metadata><defs
   id="defs868" /><sodipodi:namedview
   pagecolor="#ffffff"
   bordercolor="#666666"
   borderopacity="1"
   objecttolerance="10"
   gridtolerance="10"
   guidetolerance="10"
   inkscape:pageopacity="0"
   inkscape:pageshadow="2"
   inkscape:window-width="776"
   inkscape:window-height="480"
   id="namedview866"
   showgrid="false"
   inkscape:zoom="0.49828096"
   inkscape:cx="300.94666"
   inkscape:cy="258.90294"
   inkscape:window-x="0"
   inkscape:window-y="25"
   inkscape:window-maximized="0"
   inkscape:current-layer="Capa_1"
   inkscape:document-rotation="0" />
<path
   d="M486.945,142.045L347.906,2.934c-3.911-3.912-10.836-3.912-14.746,0L72.455,263.764c-1.209,1.21-2.051,2.645-2.542,4.168  c-0.001-0.001-0.002-0.002-0.004-0.003L0.415,476.504c-1.75,6.382,1.926,15.232,13.189,13.2l208.473-69.523  c-0.002-0.003-0.003-0.005-0.005-0.008c1.557-0.503,2.99-1.365,4.169-2.544l260.705-260.83  C491.018,152.723,491.018,146.121,486.945,142.045z M421.372,105.952L175.417,352.026l-37.394-37.414L383.977,68.539  L421.372,105.952z M340.533,25.064l28.703,28.717L123.277,299.859l-28.703-28.718L340.533,25.064z M26.791,463.31l57.59-172.851  l115.178,115.234L26.791,463.31z M218.868,395.499l-28.706-28.72l245.958-246.077l28.705,28.72L218.868,395.499z"
   id="path833"
   style="fill:#1755b3;fill-opacity:1" />
<g
   id="g835">
</g>
<g
   id="g837">
</g>
<g
   id="g839">
</g>
<g
   id="g841">
</g>
<g
   id="g843">
</g>
<g
   id="g845">
</g>
<g
   id="g847">
</g>
<g
   id="g849">
</g>
<g
   id="g851">
</g>
<g
   id="g853">
</g>
<g
   id="g855">
</g>
<g
   id="g857">
</g>
<g
   id="g859">
</g>
<g
   id="g861">
</g>
<g
   id="g863">
</g>
</svg>
