<?xml version="1.0" encoding="iso-8859-1"?>
<!-- Generator: Adobe Illustrator 16.0.0, SVG Export Plug-In . SVG Version: 6.00 Build 0)  -->
<!DOCTYPE svg PUBLIC "-//W3C//DTD SVG 1.1//EN" "http://www.w3.org/Graphics/SVG/1.1/DTD/svg11.dtd">
<svg version="1.1" id="Capa_1" xmlns="http://www.w3.org/2000/svg" xmlns:xlink="http://www.w3.org/1999/xlink" x="0px" y="0px"
	 width="495.861px" height="495.861px" viewBox="0 0 495.861 495.861" style="enable-background:new 0 0 495.861 495.861;"
	 xml:space="preserve">
<g>
	<g>
		<path d="M212.443,40.199l-18.645-24.266l-87.577,67.298L18.645,15.934L0,40.199l61.534,47.283l1.989,1.53H9.321v353.431h35.701
			v1.529v35.955h61.2v-35.955v-1.529h296.819v1.529v35.955h61.201v-35.955v-1.529h31.619V89.012H148.918l1.989-1.53L212.443,40.199z
			 M432.619,237.168c15.775,0,28.559,12.788,28.559,28.559c0,15.771-12.787,28.56-28.559,28.56s-28.559-12.785-28.559-28.56
			S416.848,237.168,432.619,237.168z M404.061,170.867c0-15.774,12.787-28.559,28.559-28.559s28.561,12.788,28.561,28.559
			c0,15.771-12.789,28.559-28.561,28.559S404.061,186.642,404.061,170.867z M356.119,398.098H56.24V133.361h299.879V398.098z"/>
	</g>
</g>
<g>
</g>
<g>
</g>
<g>
</g>
<g>
</g>
<g>
</g>
<g>
</g>
<g>
</g>
<g>
</g>
<g>
</g>
<g>
</g>
<g>
</g>
<g>
</g>
<g>
</g>
<g>
</g>
<g>
</g>
</svg>
