<?xml version="1.0" encoding="UTF-8" standalone="no"?>
<svg
   xmlns:dc="http://purl.org/dc/elements/1.1/"
   xmlns:cc="http://creativecommons.org/ns#"
   xmlns:rdf="http://www.w3.org/1999/02/22-rdf-syntax-ns#"
   xmlns:svg="http://www.w3.org/2000/svg"
   xmlns="http://www.w3.org/2000/svg"
   xmlns:sodipodi="http://sodipodi.sourceforge.net/DTD/sodipodi-0.dtd"
   xmlns:inkscape="http://www.inkscape.org/namespaces/inkscape"
   version="1.1"
   viewBox="0 0 512 512"
   enable-background="new 0 0 512 512"
   id="svg841"
   sodipodi:docname="upload.svg"
   inkscape:version="1.0.2 (e86c8708, 2021-01-15)">
  <metadata
     id="metadata847">
    <rdf:RDF>
      <cc:Work
         rdf:about="">
        <dc:format>image/svg+xml</dc:format>
        <dc:type
           rdf:resource="http://purl.org/dc/dcmitype/StillImage" />
      </cc:Work>
    </rdf:RDF>
  </metadata>
  <defs
     id="defs845" />
  <sodipodi:namedview
     pagecolor="#ffffff"
     bordercolor="#666666"
     borderopacity="1"
     objecttolerance="10"
     gridtolerance="10"
     guidetolerance="10"
     inkscape:pageopacity="0"
     inkscape:pageshadow="2"
     inkscape:window-width="776"
     inkscape:window-height="480"
     id="namedview843"
     showgrid="false"
     inkscape:zoom="0.48344371"
     inkscape:cx="256"
     inkscape:cy="256"
     inkscape:window-x="0"
     inkscape:window-y="25"
     inkscape:window-maximized="0"
     inkscape:current-layer="svg841" />
  <g
     id="g839"
     style="fill:#ffffff">
    <g
       id="g837"
       style="fill:#ffffff">
      <path
         d="m153.7,171.5l81.9-88.1v265.3c0,11.3 9.1,20.4 20.4,20.4 11.3,0 20.4-9.1 20.4-20.4v-265.3l81.9,88.1c7.7,8.3 20.6,8.7 28.9,1.1 8.3-7.7 8.7-20.6 1.1-28.9l-117.3-126.2c-11.5-11.6-25.6-5.2-29.9,0l-117.3,126.2c-7.7,8.3-7.2,21.2 1.1,28.9 8.2,7.6 21.1,7.2 28.8-1.1z"
         id="path833"
         style="fill:#ffffff" />
      <path
         d="M480.6,341.2c-11.3,0-20.4,9.1-20.4,20.4V460H51.8v-98.4c0-11.3-9.1-20.4-20.4-20.4S11,350.4,11,361.6v118.8    c0,11.3,9.1,20.4,20.4,20.4h449.2c11.3,0,20.4-9.1,20.4-20.4V361.6C501,350.4,491.9,341.2,480.6,341.2z"
         id="path835"
         style="fill:#ffffff" />
    </g>
  </g>
</svg>
