<?xml version="1.0" encoding="UTF-8" standalone="no"?>
<svg
   xmlns:dc="http://purl.org/dc/elements/1.1/"
   xmlns:cc="http://creativecommons.org/ns#"
   xmlns:rdf="http://www.w3.org/1999/02/22-rdf-syntax-ns#"
   xmlns:svg="http://www.w3.org/2000/svg"
   xmlns="http://www.w3.org/2000/svg"
   xmlns:sodipodi="http://sodipodi.sourceforge.net/DTD/sodipodi-0.dtd"
   xmlns:inkscape="http://www.inkscape.org/namespaces/inkscape"
   version="1.1"
   id="Capa_1"
   x="0px"
   y="0px"
   viewBox="0 0 487.95 487.95"
   style="enable-background:new 0 0 487.95 487.95;"
   xml:space="preserve"
   sodipodi:docname="zoom.svg"
   inkscape:version="1.0.2 (e86c8708, 2021-01-15)"><metadata
   id="metadata874"><rdf:RDF><cc:Work
       rdf:about=""><dc:format>image/svg+xml</dc:format><dc:type
         rdf:resource="http://purl.org/dc/dcmitype/StillImage" /></cc:Work></rdf:RDF></metadata><defs
   id="defs872" /><sodipodi:namedview
   pagecolor="#ffffff"
   bordercolor="#666666"
   borderopacity="1"
   objecttolerance="10"
   gridtolerance="10"
   guidetolerance="10"
   inkscape:pageopacity="0"
   inkscape:pageshadow="2"
   inkscape:window-width="1440"
   inkscape:window-height="764"
   id="namedview870"
   showgrid="false"
   inkscape:zoom="0.82577983"
   inkscape:cx="253.3815"
   inkscape:cy="124.68485"
   inkscape:window-x="0"
   inkscape:window-y="25"
   inkscape:window-maximized="1"
   inkscape:current-layer="Capa_1" />
<g
   id="g837"
   transform="matrix(-1,0,0,1,487.95,0)">
	<g
   id="g835">
		<path
   d="M 481.8,453 341.8,312.9 C 369.4,279.8 386,237.5 386,191.3 386,85.9 299.5,0.2 193.1,0.2 86.7,0.2 0,86 0,191.4 c 0,105.4 86.5,191.1 192.9,191.1 45.2,0 86.8,-15.5 119.8,-41.4 l 140.5,140.5 c 8.2,8.2 20.4,8.2 28.6,0 8.2,-8.2 8.2,-20.4 0,-28.6 z M 41,191.4 c 0,-82.8 68.2,-150.1 151.9,-150.1 83.7,0 151.9,67.3 151.9,150.1 0,82.8 -68.2,150.1 -151.9,150.1 C 109.2,341.5 41,274.1 41,191.4 Z"
   id="path833" />
	</g>
</g>
<g
   id="g839">
</g>
<g
   id="g841">
</g>
<g
   id="g843">
</g>
<g
   id="g845">
</g>
<g
   id="g847">
</g>
<g
   id="g849">
</g>
<g
   id="g851">
</g>
<g
   id="g853">
</g>
<g
   id="g855">
</g>
<g
   id="g857">
</g>
<g
   id="g859">
</g>
<g
   id="g861">
</g>
<g
   id="g863">
</g>
<g
   id="g865">
</g>
<g
   id="g867">
</g>
</svg>
